<svg version="1.2" xmlns="http://www.w3.org/2000/svg" viewBox="0 0 500 93" width="500" height="93">
	<title>logo</title>
	<style>
		.s0 { fill: #fafafa } 
	</style>
	<path class="s0" d="m63.3 28.3v35.4c-0.3 6-5.5 10.6-11.5 10.3-5.5-0.3-9.9-4.8-10.2-10.3 0-2.3 0.8-4.6 2.3-6.4l17.7-21.4c2.5-3.1 2.1-7.5-0.9-10.1q-0.1-0.1-0.3-0.2l-21.1-20.2c-3.1-2.9-7.9-2.9-11 0-2.9 2.7-3 7.2-0.3 10q0.1 0.2 0.3 0.4l16.9 16.1-13.6 16.4c-3.6 4.4-5.5 9.8-5.6 15.5 0 13.8 11.8 25 26.4 25 14.5 0 26.3-11.3 26.3-25v-35.5c0.3-6 5.3-10.7 11.3-10.4 5.7 0.2 10.3 4.7 10.5 10.4 0 2.4-0.8 4.6-2.4 6.4l-17.6 21.4c-2.5 3-2.1 7.5 0.9 10.1q0.1 0.1 0.2 0.2l21.2 20.2c3.1 2.9 7.9 2.9 10.9 0 2.9-2.7 3-7.2 0.3-10.1q-0.1-0.2-0.3-0.3l-16.8-16.1 13.6-16.4c3.6-4.4 5.5-9.8 5.6-15.5 0-13.8-11.8-25-26.4-25-14.5 0-26.3 11.2-26.3 25m116.8 41.2l-13-18.2c3.7-0.6 7-2.5 9.4-5.2 2.2-2.9 3.4-6.5 3.2-10.1 0-2.6-0.6-5.2-1.7-7.6-1-2.2-2.7-4.2-4.7-5.6-1.9-1.3-4.1-2.3-6.4-2.8q-6.6-1-13.2-0.8h-16v53.9h14.4v-21.1l13 21.1h29l2.9-9.7h21.9l2.9 9.7h15.3l-19.5-53.8h-19.4zm20.3-16.6l5.7-17.7c0.3-1.1 0.7-2.3 1-3.4 0.3-1.1 0.7-2.5 1-3.8 0.5 1.9 0.9 3.4 1.2 4.6 0.3 1.3 0.5 2.1 0.7 2.6l5.7 17.6zm-35.8-14.9c0.2 2-0.7 3.9-2.3 5-2.2 1.3-4.7 1.8-7.2 1.6h-2.9v-14.1h3.1c2.5-0.2 5 0.4 7.2 1.7 1.6 1.5 2.4 3.6 2.1 5.8m109.4-18.8v33.1l-20.6-33h-15.5v53.8h14.9v-33.2l20.7 33.2h15.3v-53.8zm36.8 37.9c-2.8-2.9-4.3-6.7-4.2-10.8-0.1-4.1 1.3-8.1 4.1-11.2 2.9-2.9 6.8-4.5 10.8-4.3 2.3 0 4.6 0.5 6.7 1.6 2.4 1.2 4.6 2.9 6.4 4.9v-16.1q-3.6-1.6-7.4-2.5-3.6-0.8-7.3-0.8c-3.8-0.1-7.6 0.6-11.2 1.9-3.4 1.3-6.4 3.3-9 5.9-2.8 2.6-4.9 5.7-6.4 9.2-3.2 8.1-2.7 17.2 1.2 25 2.3 4.1 5.6 7.6 9.7 10.1 2.2 1.5 4.6 2.5 7.2 3.2 2.8 0.7 5.7 1.1 8.5 1q3.7 0 7.3-0.8 3.8-0.9 7.4-2.5v-16.1c-1.8 2-4 3.7-6.4 4.9-2 1.1-4.4 1.6-6.7 1.6-4 0.1-7.9-1.4-10.7-4.2m27.9 15.8h15.5v-53.7h-15.5zm19.9-53.8v53.9h34.5v-12.5h-19.1v-41.3zm37.4 53.9h15.6v-53.8h-15.6zm69.2-6.9c2.8-2.5 5-5.6 6.5-9 3-7 3-14.8 0-21.8-1.5-3.4-3.7-6.5-6.5-9-2.8-2.7-6.2-4.8-9.8-6.2-7.5-2.8-15.7-2.8-23.2 0-3.6 1.4-6.9 3.5-9.7 6.2-2.8 2.5-5.1 5.6-6.7 9.1-3 6.9-3 14.7 0 21.7 1.6 3.4 3.8 6.5 6.7 9.1 2.8 2.6 6.1 4.7 9.7 6.1 7.5 2.8 15.7 2.8 23.1 0 3.7-1.4 7-3.5 9.9-6.1m-6.6-20c0.1 4.2-1.4 8.2-4.2 11.3-5.8 5.9-15.3 6-21.2 0.2q0-0.1-0.1-0.2c-2.8-3.1-4.3-7.2-4.1-11.3-0.1-4.2 1.4-8.3 4.2-11.3 5.5-5.9 14.8-6.1 20.6-0.5q0.3 0.2 0.5 0.5c2.9 3 4.4 7.1 4.3 11.3"/>
</svg>